<?xml version="1.0" encoding="UTF-8" standalone="no"?>
<!-- Created with Inkscape (http://www.inkscape.org/) -->

<svg
   version="1.1"
   id="svg1"
   width="1024"
   height="1024"
   viewBox="0 0 1024 1024"
   xmlns="http://www.w3.org/2000/svg"
   xmlns:svg="http://www.w3.org/2000/svg">
  <defs
     id="defs1" />
  <g
     id="g1">
    <path
       style="fill:#000000;stroke-width:1.00096"
       d="m 546.24264,749.63927 c -8.89799,-0.77417 -25.55902,-3.61132 -34.73004,-5.91409 -22.18178,-5.56964 -38.84466,-12.14192 -72.76996,-28.7024 -43.70017,-21.33205 -64.75576,-30.07109 -87.50003,-36.31657 -21.246,-5.83406 -31.07931,-7.0251 -57.99997,-7.0251 -29.11368,0 -35.91415,0.93889 -66,9.11211 -3.88446,1.05527 13.1276,-8.24608 22.5,-12.30188 24.44336,-10.57759 49.69103,-15.2802 74.91356,-13.95334 37.78976,1.98797 70.55438,12.79001 131.23195,43.26534 48.82282,24.52129 84.26429,33.6486 124.85449,32.15404 30.79502,-1.1339 60.8788,-10.02483 86.25,-25.49024 3.7125,-2.26302 6.75,-3.74027 6.75,-3.28278 0,0.9223 -9.31055,9.74749 -16.11675,15.27657 -29.88064,24.27388 -71.44045,36.65353 -111.38325,33.17834 z m 3.09666,-44.5406 c -17.56375,-2.25806 -40.04517,-7.92407 -58.59666,-14.76817 -5.775,-2.13054 -22.875,-9.49897 -38,-16.3743 -41.53238,-18.87925 -61.29907,-25.94187 -87.58023,-31.29236 -59.40589,-12.09423 -117.67353,-0.0338 -169.60208,35.10497 -5.87527,3.97565 -11.26137,7.58701 -11.9691,8.02526 -2.44447,1.51366 8.68077,-12.01194 17.621,-21.42289 26.81607,-28.22798 63.00404,-49.44889 99.53041,-58.36541 18.48537,-4.5125 26.21445,-5.41818 46,-5.39025 14.69995,0.0207 21.13603,0.49275 31.33312,2.29782 26.19076,4.63624 50.09968,12.61161 85.16688,28.40938 41.79967,18.83075 61.4464,26.04814 83.5,30.67442 43.69067,9.16518 85.53491,3.98372 123.95487,-15.349 20.19283,-10.16091 39.25892,-23.70996 53.79513,-38.22873 4.5375,-4.53206 8.25,-7.78523 8.25,-7.22927 0,1.87887 -10.88786,22.33924 -15.85352,29.7918 -27.28555,40.95067 -67.89479,67.3873 -113.24927,73.7253 -12.01584,1.67914 -42.57118,1.8994 -54.30055,0.39143 z M 621.74264,546.14843 V 440.94839 l -10.25,-6.49213 c -32.57715,-20.63363 -89.48649,-56.53497 -110,-69.39364 l -23.75,-14.88744 v -10.82964 c 0,-5.95629 0.19324,-10.82963 0.42943,-10.82963 0.23618,0 3.94868,2.21448 8.25,4.92108 4.30131,2.7066 26.94557,16.76877 50.32057,31.24927 23.375,14.4805 65.675,40.74204 94,58.35898 28.325,17.61694 53.18379,32.97364 55.24175,34.126 2.05796,1.15237 3.74546,2.55088 3.75,3.10782 0.006,0.76589 -7.67699,13.09485 -9.59098,15.39025 -0.17068,0.20469 -8.65584,-4.86753 -18.85591,-11.2716 -10.20007,-6.40406 -18.77042,-11.64375 -19.04522,-11.64375 -0.2748,0 -0.49964,43.2298 -0.49964,96.06622 v 96.06622 l -8.51281,2.65924 c -4.68204,1.4626 -9.18204,2.91656 -10,3.23104 -1.31044,0.50383 -1.48719,-11.93137 -1.48719,-104.62825 z m -165.09318,68.78201 -9.5795,-3.98892 -0.66366,-67.73702 c -0.36501,-37.25537 -0.66366,-108.62899 -0.66366,-158.60804 v -90.87102 l -6.47562,-0.66472 c -13.97561,-1.43459 -32.42232,-8.42582 -40.49175,-15.34622 -14.1081,-12.09919 -16.26577,-27.25497 -8.02999,-56.40401 3.2678,-11.56578 4.11415,-16.22676 4.15103,-22.86047 0.0255,-4.58294 -0.14289,-8.52221 -0.37415,-8.75391 -0.23127,-0.23172 -3.31377,1.14069 -6.85,3.04979 -3.53624,1.9091 -6.77858,3.48133 -7.2052,3.49385 -0.42662,0.0125 -0.064,-1.35611 0.80582,-3.0414 4.77433,-9.25027 6.55163,-25.13461 4.3808,-39.15279 -0.59898,-3.86795 -0.87526,-7.24686 -0.61395,-7.50867 0.26132,-0.26181 3.17278,2.02632 6.46991,5.08475 14.83853,13.76423 22.39629,34.06017 20.8604,56.01942 -0.34135,4.88057 -1.97214,14.93002 -3.62397,22.33211 -3.31606,14.85975 -3.69199,20.80983 -1.62756,25.76019 2.90582,6.96797 12.90625,12.54458 26.29805,14.66477 3.7544,0.59439 8.06368,1.27859 9.57618,1.52044 l 2.75,0.43974 v -54.53494 -54.53493 l -7.10055,3.02735 c -3.90531,1.66505 -7.23991,2.88484 -7.41024,2.71063 -0.40101,-0.41012 24.40734,-53.12243 25.57812,-54.34789 0.52993,-0.55468 1.7589,1.06127 3.04795,4.00768 1.18799,2.71541 6.56951,14.29816 11.95893,25.73947 12.12309,25.73631 11.84148,24.92057 8.22555,23.82688 -1.53987,-0.46574 -4.47281,-1.56786 -6.51764,-2.44915 -2.04484,-0.88129 -4.18234,-1.60234 -4.75,-1.60234 -0.69676,0 -1.03212,17.59084 -1.03212,54.13817 v 54.13819 l 5.25,-0.59581 c 17.30844,-1.96424 29.49375,-7.09216 33.48355,-14.09079 2.85265,-5.00392 2.96453,-12.83411 0.33275,-23.28845 -3.30636,-13.13398 -4.22074,-20.15905 -4.1857,-32.15812 0.0531,-18.19127 3.99712,-30.60131 13.77745,-43.35159 3.84423,-5.0116 12.10946,-12.82616 13.56584,-12.82616 0.28484,0 0.0846,2.1416 -0.44492,4.75912 -2.45968,12.15801 -0.55044,33.05321 3.78823,41.45939 1.534,2.97213 1.51928,3.03809 -0.53233,2.38569 -1.16047,-0.36903 -4.00556,-1.75693 -6.32241,-3.08424 -6.92303,-3.96613 -7.04049,-3.82431 -6.48689,7.83227 0.39413,8.29872 1.3234,13.05786 4.84199,24.79751 5.1978,17.34232 5.90159,28.42049 2.41647,38.03685 -3.03739,8.38095 -11.78377,17.19553 -21.8947,22.06544 -8.96933,4.32006 -21.44009,7.80901 -31.16412,8.71879 l -6.37306,0.59627 -0.27608,33.17139 c -0.15184,18.24427 -0.40398,91.3107 -0.56031,162.36986 -0.15634,71.05916 -0.38441,129.29883 -0.50684,129.42149 -0.12243,0.12266 -4.53337,-1.57199 -9.8021,-3.7659 z M 272.74264,526.76412 c 0,-40.70558 -0.22527,-74.01016 -0.50059,-74.01016 -0.27532,0 -8.43232,4.99557 -18.12665,11.10126 -9.69434,6.10569 -18.17176,11.31106 -18.83871,11.56749 -0.6782,0.26075 -3.49631,-2.92058 -6.39421,-7.21832 -4.8117,-7.13604 -5.05515,-7.77906 -3.4107,-9.00851 2.19548,-1.64142 80.2962,-50.46804 96.9755,-60.62668 l 12.20464,-7.4333 0.0454,-24.79752 0.0454,-24.79751 h 9.97793 9.97794 l 0.27206,18.48593 0.27207,18.48593 16.5,-10.27114 c 39.17302,-24.38496 60.99215,-37.78171 62.44332,-38.33964 1.34834,-0.51841 1.55668,0.81753 1.55668,9.98207 0,9.82293 -0.16112,10.69696 -2.25,12.20591 -2.99611,2.1643 -62.82876,39.74854 -106.02266,66.59876 l -34.6534,21.54128 -0.0392,76.64686 -0.0392,76.64686 -9.9978,3.6253 -9.9978,3.62529 z"
       id="path1" />
  </g>
</svg>
